<svg xmlns="http://www.w3.org/2000/svg" fill="none" viewBox="0 0 347 345">
  <defs/>
  <path fill="#0B0757" d="M85 85l13 27 57 112 5 13-14 31-11 26-3 5-6-10a12881 12881 0 00-93-180 377 377 0 0133-3l-3-10-3-10H0a7448 7448 0 00131 259l14-26 80-163-9 1a106 106 0 01-41-5l4 8 3 8 8-1h7l-7 16-11 23c-2 5-4 8-5 7l-5-9-9-17-9-16-15-28-15-28-4-8h6l6-1-2-5-6-10-3-6H85zM276 96l-5 11 22 1 22 1a1210 1210 0 01-44 84l-25 48-14 28a1250 1250 0 00-16 29l-5-8a659 659 0 00-19-35l-4 6-6 9-2 4 2 4a7808 7808 0 0136 67l65-128 64-129h-9l-33-1h-24l-5 9z"/>
  <path fill="#0B0757" d="M171 132l-28-11c-6-3-9-9-6-14 3-6 10-8 16-5l39 19-21 11zM261 107c4 5 1 12-5 14l-64 26c-2 0-14 9-19-1-4-6 2-9 5-11l67-32c6-3 14-1 16 4zM179 21c0-12 10-21 24-21 13 0 24 9 24 21s-11 21-24 21c-14 0-24-9-24-21z"/>
  <path fill="#0B0757" d="M272 96c-2 2-6 3-9 2l-9-5c-17-7-19-19-24-27-2 13-1 24 0 37l-27 14h-7l-21-10c1-14 2-27 1-41-6 9-8 22-34 32-2 1-7 1-9-2-1-3 0-6 3-8 38-23 26-40 42-40 32 2 54-3 57 3 13 23 14 28 25 33l9 4c3 2 4 5 3 8zM226 140v6c-2 4-8 5-12 4l-7-3 19-7z"/>
</svg>
